<svg id="OutlineExpand" enable-background="new 0 0 64 64" height="512" viewBox="0 0 64 64" width="512" xmlns="http://www.w3.org/2000/svg"><path d="m6 22.899v36.101c0 1.654 1.346 3 3 3s3-1.346 3-3v-36.101c2.279-.465 4-2.484 4-4.899v-13c0-1.654-1.346-3-3-3-.771 0-1.468.301-2 .78-.532-.479-1.229-.78-2-.78s-1.468.301-2 .78c-.532-.479-1.229-.78-2-.78-1.654 0-3 1.346-3 3v13c0 2.415 1.721 4.435 4 4.899zm-2-17.899c0-.552.448-1 1-1s1 .448 1 1v11h2v-11c0-.552.448-1 1-1s1 .448 1 1v11h2v-11c0-.552.448-1 1-1s1 .448 1 1v13c0 1.654-1.346 3-3 3-.553 0-1 .447-1 1v37c0 .552-.448 1-1 1s-1-.448-1-1v-37c0-.553-.447-1-1-1-1.654 0-3-1.346-3-3z"/><path d="m61.561 2.172c-.276-.186-.626-.224-.932-.101-3.427 1.371-5.817 4.499-6.239 8.164l-2.383 20.65c-.031.265.046.53.212.739l3.781 4.727v22.649c0 1.654 1.346 3 3 3s3-1.346 3-3v-56c0-.332-.165-.642-.439-.828zm-1.561 56.828c0 .552-.448 1-1 1s-1-.448-1-1v-23c0-.228-.077-.447-.219-.625l-3.74-4.675 2.335-20.236c.278-2.415 1.626-4.54 3.624-5.828z"/><path d="m23 24h2c0-4.963 4.037-9 9-9v-2c-6.065 0-11 4.935-11 11z"/><path d="m38.4 13.916c-.708-.31-1.448-.544-2.202-.696l-.396 1.961c.615.124 1.22.315 1.798.567z"/><path d="m14 56c0 1.654 1.346 3 3 3h23c1.324 1.839 3.804 3 6.5 3 4.136 0 7.5-2.691 7.5-6s-3.364-6-7.5-6c-2.696 0-5.176 1.161-6.5 3h-23c-1.654 0-3 1.346-3 3zm3-1h23.545c.359 0 .691-.193.869-.506.861-1.515 2.857-2.494 5.086-2.494 3.032 0 5.5 1.794 5.5 4s-2.468 4-5.5 4c-2.229 0-4.225-.979-5.086-2.494-.178-.313-.51-.506-.869-.506h-23.545c-.552 0-1-.448-1-1s.448-1 1-1z"/><path d="m16.097 45.429c.165.348.516.571.903.571h36c.387 0 .738-.223.903-.571.166-.35.115-.763-.129-1.062l-7.267-8.882c2.893-3.149 4.493-7.185 4.493-11.485 0-9.374-7.626-17-17-17s-17 7.626-17 17c0 4.84 2.043 9.355 5.602 12.574l-6.376 7.793c-.245.299-.295.712-.129 1.062zm2.903-21.429c0-8.271 6.729-15 15-15s15 6.729 15 15c0 3.697-1.339 7.176-3.769 9.925l-9.456-11.557c-.381-.465-1.168-.465-1.549 0l-10.358 12.658c-3.095-2.835-4.868-6.79-4.868-11.026zm16 .579 15.89 19.421h-31.78z"/></svg>