<?xml version="1.0" encoding="iso-8859-1"?>
<!-- Generator: Adobe Illustrator 19.0.0, SVG Export Plug-In . SVG Version: 6.00 Build 0)  -->
<svg version="1.1" id="Capa_1" xmlns="http://www.w3.org/2000/svg" xmlns:xlink="http://www.w3.org/1999/xlink" x="0px" y="0px"
	 viewBox="0 0 480 480" style="enable-background:new 0 0 480 480;" xml:space="preserve">
<g>
	<g>
		<path d="M440,96h-80V56c0-30.872-25.12-56-56-56H176c-30.88,0-56,25.128-56,56v40H40c-22.056,0-40,17.944-40,40v304
			c0,22.056,17.944,40,40,40h400c22.056,0,40-17.944,40-40V136C480,113.944,462.056,96,440,96z M136,56c0-22.056,17.944-40,40-40
			h128c22.056,0,40,17.944,40,40v40h-16V56c0-13.232-10.768-24-24-24H176c-13.232,0-24,10.768-24,24v40h-16V56z M312,56v40H168V56
			c0-4.416,3.592-8,8-8h128C308.408,48,312,51.584,312,56z M464,440c0,13.232-10.768,24-24,24H40c-13.232,0-24-10.768-24-24V136
			c0-13.232,10.768-24,24-24h88h32h160h32h88c13.232,0,24,10.768,24,24V440z"/>
	</g>
</g>
<g>
	<g>
		<path d="M280,192h-16v-16c0-4.424-3.584-8-8-8h-32c-4.416,0-8,3.576-8,8v16h-16c-4.416,0-8,3.576-8,8v32c0,4.424,3.584,8,8,8h16
			v16c0,4.424,3.584,8,8,8h32c4.416,0,8-3.576,8-8v-16h16c4.416,0,8-3.576,8-8v-32C288,195.576,284.416,192,280,192z M272,224h-16
			c-4.416,0-8,3.576-8,8v16h-16v-16c0-4.424-3.584-8-8-8h-16v-16h16c4.416,0,8-3.576,8-8v-16h16v16c0,4.424,3.584,8,8,8h16V224z"/>
	</g>
</g>
<g>
	<g>
		<path d="M240,128c-88.224,0-160,71.776-160,160s71.776,160,160,160s160-71.776,160-160S328.224,128,240,128z M240,432
			c-79.4,0-144-64.6-144-144s64.6-144,144-144s144,64.6,144,144S319.4,432,240,432z"/>
	</g>
</g>
<g>
	<g>
		<path d="M299.408,320.24C289.792,296.28,266.144,280,240,280c-26.144,0-49.792,16.28-59.408,40.24
			C168.968,321.896,160,331.92,160,344c0,12.08,8.968,22.104,20.592,23.76C190.208,391.72,213.856,408,240,408
			s49.792-16.28,59.408-40.24C311.032,366.104,320,356.08,320,344C320,331.92,311.032,321.896,299.408,320.24z M296,352h-2.352
			c-3.536,0-6.656,2.328-7.664,5.72C279.968,377.896,261.064,392,240,392c-21.064,0-39.968-14.104-45.984-34.28
			c-1.008-3.392-4.128-5.72-7.664-5.72H184c-4.408,0-8-3.584-8-8c0-4.416,3.592-8,8-8h2.352c3.536,0,6.656-2.328,7.664-5.72
			c4.368-14.648,15.56-26.008,29.408-31.184c-0.112,2.456,0.16,4.968,0.984,7.432c1.736,5.208,5.416,9.448,10.368,11.912
			c2.928,1.472,6.08,2.2,9.248,2.2c2.184,0,4.376-0.352,6.504-1.064l-5.064-15.168c-1.56,0.496-2.88,0.048-3.536-0.272
			c-0.656-0.328-1.824-1.112-2.344-2.672c-0.68-2.032,0.248-4.216,2-5.336c20.408,0.696,38.528,14.488,44.392,34.152
			c1.016,3.392,4.136,5.72,7.672,5.72H296c4.408,0,8,3.584,8,8C304,348.416,300.408,352,296,352z"/>
	</g>
</g>
<g>
	<g>
		<rect x="208" y="328" width="16" height="16"/>
	</g>
</g>
<g>
	<g>
		<rect x="256" y="328" width="16" height="16"/>
	</g>
</g>
<g>
	<g>
		<path d="M249.6,355.2c-3.56,4.744-9.352,4.8-9.6,4.8c-5.936,0-9.456-4.6-9.6-4.8l-12.8,9.6c1.4,1.872,9.072,11.2,22.4,11.2
			c2.336,0,14.408-0.536,22.4-11.2L249.6,355.2z"/>
	</g>
</g>
<g>
</g>
<g>
</g>
<g>
</g>
<g>
</g>
<g>
</g>
<g>
</g>
<g>
</g>
<g>
</g>
<g>
</g>
<g>
</g>
<g>
</g>
<g>
</g>
<g>
</g>
<g>
</g>
<g>
</g>
</svg>
